# xmcd
#
# Track frame offsets: 
#        150
#        15777
#        33752
#        51326
#        70740
#        86267
#        102327
#        121952
#        137491
#        153325
#        168547
#
# Disc length: 2441 seconds
#
# Revision: 3
# Processed by: cddbd v1.5.2PL0 Copyright (c) Steve Scherf et al.
# Submitted via: ExactAudioCopy v1.0b3
#
DISCID=7c09870b
DTITLE=Ware, Jessie - Tough Love
DYEAR=2014
DGENRE=Pop
TTITLE0=Tough Love
TTITLE1=You and I (Forever)
TTITLE2=Cruel
TTITLE3=Say You Love Me
TTITLE4=Sweetest Song
TTITLE5=Kind Of ... Sometimes ... Maybe
TTITLE6=Want Your Feeling
TTITLE7=Pieces
TTITLE8=Keep On Lying
TTITLE9=Champagne Kisses
TTITLE10=Desire
EXTD=YEAR: 2014
EXTT0=
EXTT1=
EXTT2=
EXTT3=
EXTT4=
EXTT5=
EXTT6=
EXTT7=
EXTT8=
EXTT9=
EXTT10=
PLAYORDER=
